# xmcd
#
# Track frame offsets: 
#        150
#        10535
#        23048
#        36530
#        56160
#        74104
#        85784
#        97470
#        111438
#        127200
#        141219
#        156466
#        168485
#        181277
#
# Disc length: 2590 seconds
#
# Revision: 1
# Processed by: cddbd v1.5.2PL0 Copyright (c) Steve Scherf et al.
# Submitted via: ExactAudioCopy v0.95a4
#
DISCID=d50a1c0e
DTITLE=Patty Loveless - Sleepless Nights
DYEAR=2008
DGENRE=Country
TTITLE0=Why Baby Why
TTITLE1=The Pain of Loving You
TTITLE2=He Thinks I Still Care
TTITLE3=Sleepless Nights (Featuring Vince Gill)
TTITLE4=Crazy Arms
TTITLE5=There Stands the Glass
TTITLE6=That's All It Took (Featuring Jedd Hughes)
TTITLE7=Color of the Blue
TTITLE8=I Forgot More Than You'll Ever Know
TTITLE9=Next in Line
TTITLE10=Don't Let Me Cross Over
TTITLE11=Please Help Me, I'm Falling
TTITLE12=There Goes My Everything
TTITLE13=Cold, Cold Heart
EXTD=YEAR: 2008
EXTT0=
EXTT1=
EXTT2=
EXTT3=
EXTT4=
EXTT5=
EXTT6=
EXTT7=
EXTT8=
EXTT9=
EXTT10=
EXTT11=
EXTT12=
EXTT13=
PLAYORDER=
